<?xml version="1.0" encoding="UTF-8" standalone="no"?>
<!DOCTYPE svg PUBLIC "-//W3C//DTD SVG 1.1//EN" "http://www.w3.org/Graphics/SVG/1.1/DTD/svg11.dtd">
<svg width="100%" height="100%" viewBox="0 0 1024 1024" version="1.1" xmlns="http://www.w3.org/2000/svg" xmlns:xlink="http://www.w3.org/1999/xlink" xml:space="preserve" xmlns:serif="http://www.serif.com/" style="fill-rule:evenodd;clip-rule:evenodd;stroke-linejoin:round;stroke-miterlimit:2;">
    <circle cx="512" cy="512" r="512" style="fill:rgb(235,235,235);"/>
    <clipPath id="_clip1">
        <circle cx="512" cy="512" r="512"/>
    </clipPath>
    <g clip-path="url(#_clip1)">
        <g>
            <rect x="0" y="0" width="1024" height="1024" style="fill:url(#_Linear2);"/>
            <g>
                <path d="M669.45,229.319C564.868,220.889 459.777,220.873 355.192,229.27C288.116,234.315 234.71,287.469 229.345,354.525C220.881,459.111 220.864,564.211 229.296,668.8C234.34,735.881 287.492,789.289 354.543,794.655C459.126,803.12 564.22,803.136 668.806,794.704C735.883,789.662 789.288,736.505 794.648,669.449C798.877,617.32 801.016,564.344 801.016,511.987C801.016,459.823 798.886,407.06 794.698,355.173C789.653,288.093 736.501,234.685 669.45,229.319ZM763.528,666.522C759.337,718.525 717.89,759.723 665.865,763.598C563.239,771.845 460.116,771.828 357.493,763.549C305.497,759.353 264.303,717.909 260.421,665.886C252.148,563.256 252.165,460.125 260.471,357.497C264.667,305.498 306.109,264.304 358.129,260.421C460.756,252.149 563.882,252.165 666.507,260.471C718.503,264.665 759.698,306.11 763.578,358.134C771.851,460.764 771.835,563.895 763.528,666.522Z" style="fill:white;fill-rule:nonzero;"/>
                <path d="M645.065,321.926L384.142,321.926C380.071,321.926 376.167,323.527 373.288,326.378C370.41,329.229 368.794,333.095 368.794,337.127L368.794,509.397C368.832,541.561 395.151,567.626 427.63,567.664L455.769,567.664L455.769,638.598C455.769,670.779 482.11,696.866 514.603,696.866C547.098,696.866 573.439,670.779 573.439,638.598L573.439,567.664L601.578,567.664C634.057,567.628 660.378,541.562 660.414,509.397L660.414,337.127C660.414,328.732 653.542,321.926 645.065,321.926ZM400.039,353.172L456.048,353.172L456.048,381.079C456.167,389.401 462.971,396.086 471.324,396.086C479.677,396.086 486.481,389.401 486.599,381.078L486.599,353.172L542.608,353.172L542.608,381.079C542.73,389.399 549.534,396.079 557.884,396.079C566.234,396.079 573.037,389.398 573.159,381.078L573.159,353.172L629.168,353.172L629.168,452.114L400.039,452.114L400.039,353.172ZM629.168,510.869C629.153,526.056 616.624,538.363 601.163,538.379L557.883,538.379C549.447,538.38 542.609,545.097 542.608,553.385L542.608,638.416C542.438,653.489 529.95,665.621 514.603,665.621C499.257,665.621 486.769,653.489 486.599,638.415L486.599,553.385C486.6,549.405 484.99,545.588 482.126,542.773C479.261,539.959 475.375,538.378 471.323,538.379L428.043,538.379C412.584,538.363 400.055,526.056 400.039,510.869L400.039,483.359L629.168,483.359L629.168,510.869Z" style="fill:white;fill-rule:nonzero;"/>
            </g>
        </g>
    </g>
    <defs>
        <linearGradient id="_Linear2" x1="0" y1="0" x2="1" y2="0" gradientUnits="userSpaceOnUse" gradientTransform="matrix(6.27019e-14,1024,1024,-6.27019e-14,512,0)"><stop offset="0" style="stop-color:rgb(77,82,190);stop-opacity:1"/><stop offset="0.6" style="stop-color:rgb(91,97,205);stop-opacity:1"/><stop offset="1" style="stop-color:rgb(139,147,255);stop-opacity:1"/></linearGradient>
    </defs>
</svg>
