<svg viewBox="0 0 1064 242" xmlns="http://www.w3.org/2000/svg" xml:space="preserve" style="fill-rule:evenodd;clip-rule:evenodd;stroke-linejoin:round;stroke-miterlimit:2"><path style="fill:none" d="M0 0h1063.87v242H0z"/><clipPath id="a"><path d="M0 0h1063.87v242H0z"/></clipPath><g clip-path="url(#a)"><path d="M329.703 122.37c-2.378 0-4.297-.713-5.758-2.14-1.461-1.427-2.191-3.33-2.191-5.708V62.95h-16.512c-5.028 0-7.542-2.175-7.542-6.523 0-4.281 2.514-6.421 7.542-6.421h48.923c5.028 0 7.542 2.14 7.542 6.421 0 4.348-2.514 6.523-7.542 6.523h-16.512v51.572c0 2.378-.713 4.281-2.14 5.708-1.427 1.427-3.363 2.14-5.81 2.14ZM399.01 70.594c11.619 0 17.429 7.032 17.429 21.098v23.544c0 2.242-.697 4.009-2.09 5.3-1.392 1.291-3.278 1.936-5.656 1.936-2.378 0-4.247-.645-5.606-1.936s-2.038-3.058-2.038-5.3V91.488c0-2.99-.629-5.215-1.886-6.676-1.257-1.461-3.21-2.191-5.86-2.191-3.194 0-5.759 1.019-7.695 3.057-1.937 2.039-2.905 4.757-2.905 8.154v21.404c0 2.242-.68 4.009-2.039 5.3-1.359 1.291-3.227 1.936-5.605 1.936-2.379 0-4.264-.645-5.657-1.936-1.393-1.291-2.089-3.058-2.089-5.3V56.529c0-2.107.73-3.805 2.191-5.096 1.461-1.291 3.38-1.937 5.758-1.937 2.243 0 4.043.612 5.402 1.835 1.359 1.223 2.039 2.853 2.039 4.892v22.219c1.766-2.582 4.043-4.536 6.829-5.861 2.785-1.325 5.945-1.987 9.478-1.987ZM468.113 106.98c1.359 0 2.463.544 3.313 1.631.849 1.087 1.274 2.48 1.274 4.178 0 1.156-.34 2.226-1.019 3.211-.68.985-1.631 1.818-2.854 2.497-2.311 1.223-4.994 2.225-8.052 3.007-3.058.781-5.878 1.172-8.46 1.172-5.435 0-10.175-1.053-14.218-3.16-4.043-2.106-7.151-5.113-9.326-9.02-2.174-3.907-3.261-8.51-3.261-13.81 0-5.096 1.053-9.615 3.16-13.556 2.106-3.941 5.028-7.015 8.765-9.224 3.737-2.208 7.984-3.312 12.74-3.312 4.553 0 8.544 1.002 11.976 3.007 3.431 2.004 6.098 4.858 8.001 8.561 1.902 3.703 2.853 8.035 2.853 12.995 0 1.495-.356 2.633-1.07 3.414-.713.782-1.715 1.172-3.006 1.172h-28.538c.475 4.009 1.698 6.914 3.669 8.715 1.97 1.8 4.79 2.701 8.459 2.701 1.971 0 3.737-.238 5.3-.714 1.563-.475 3.296-1.121 5.198-1.936a40.713 40.713 0 0 1 2.752-1.07c.883-.306 1.665-.459 2.344-.459Zm-17.53-25.786c-2.922 0-5.266.934-7.033 2.803-1.767 1.868-2.82 4.569-3.159 8.102h19.67c-.203-3.601-1.104-6.319-2.701-8.153-1.596-1.835-3.856-2.752-6.777-2.752ZM543.943 70.594c5.436 0 9.615 1.648 12.536 4.943 2.922 3.296 4.383 8.68 4.383 16.155v23.544c0 2.378-.713 4.178-2.14 5.401-1.427 1.224-3.262 1.835-5.504 1.835-2.174 0-4.009-.611-5.504-1.835-1.495-1.223-2.242-3.023-2.242-5.401V91.488c0-3.262-.561-5.555-1.682-6.88-1.121-1.325-2.837-1.987-5.147-1.987-2.854 0-5.13.985-6.829 2.955-1.698 1.971-2.548 4.723-2.548 8.256v21.404c0 2.378-.713 4.178-2.14 5.401-1.427 1.224-3.262 1.835-5.504 1.835-2.174 0-4.009-.611-5.504-1.835-1.494-1.223-2.242-3.023-2.242-5.401V91.488c0-3.262-.56-5.555-1.682-6.88-1.121-1.325-2.836-1.987-5.147-1.987-2.853 0-5.13.985-6.828 2.955-1.699 1.971-2.548 4.723-2.548 8.256v21.404c0 2.378-.731 4.178-2.192 5.401-1.461 1.224-3.278 1.835-5.453 1.835-2.174 0-4.008-.611-5.503-1.835-1.495-1.223-2.243-3.023-2.243-5.401V77.83c0-2.242.765-3.975 2.294-5.198 1.528-1.223 3.38-1.834 5.554-1.834 2.039 0 3.737.594 5.096 1.783s2.039 2.837 2.039 4.944v1.019c1.631-2.582 3.754-4.553 6.37-5.912s5.589-2.038 8.918-2.038c3.601 0 6.642.73 9.122 2.191 2.48 1.461 4.4 3.822 5.759 7.084 1.563-2.854 3.788-5.113 6.676-6.778 2.887-1.665 6.166-2.497 9.835-2.497ZM612.638 106.98c1.359 0 2.463.544 3.313 1.631.849 1.087 1.274 2.48 1.274 4.178 0 1.156-.34 2.226-1.019 3.211-.68.985-1.631 1.818-2.854 2.497-2.31 1.223-4.994 2.225-8.052 3.007-3.058.781-5.878 1.172-8.46 1.172-5.435 0-10.175-1.053-14.218-3.16-4.043-2.106-7.151-5.113-9.325-9.02-2.175-3.907-3.262-8.51-3.262-13.81 0-5.096 1.053-9.615 3.16-13.556 2.106-3.941 5.028-7.015 8.765-9.224 3.737-2.208 7.984-3.312 12.74-3.312 4.553 0 8.545 1.002 11.976 3.007 3.431 2.004 6.098 4.858 8.001 8.561 1.902 3.703 2.854 8.035 2.854 12.995 0 1.495-.357 2.633-1.071 3.414-.713.782-1.715 1.172-3.006 1.172h-28.538c.475 4.009 1.698 6.914 3.669 8.715 1.97 1.8 4.79 2.701 8.459 2.701 1.971 0 3.737-.238 5.3-.714 1.563-.475 3.296-1.121 5.198-1.936a40.92 40.92 0 0 1 2.752-1.07c.883-.306 1.665-.459 2.344-.459Zm-17.53-25.786c-2.922 0-5.266.934-7.033 2.803-1.766 1.868-2.82 4.569-3.159 8.102h19.671c-.204-3.601-1.105-6.319-2.701-8.153-1.597-1.835-3.856-2.752-6.778-2.752ZM663.905 121.861c-2.378 0-4.213-.646-5.504-1.937-1.291-1.291-1.936-3.126-1.936-5.504V57.446c0-2.378.645-4.213 1.936-5.504 1.291-1.291 3.126-1.936 5.504-1.936h36.08c5.028 0 7.543 2.038 7.543 6.115 0 4.145-2.515 6.217-7.543 6.217h-28.028v16.817h25.99c5.028 0 7.542 2.073 7.542 6.218 0 4.076-2.514 6.115-7.542 6.115h-25.99v18.04h28.028c5.028 0 7.543 2.072 7.543 6.217 0 4.077-2.515 6.116-7.543 6.116h-36.08ZM760.323 110.547c1.495 1.563 2.242 3.262 2.242 5.096 0 1.835-.696 3.449-2.089 4.842-1.393 1.393-3.007 2.089-4.841 2.089-1.835 0-3.534-.815-5.096-2.446l-13.25-14.269-13.148 14.269c-1.563 1.631-3.262 2.446-5.096 2.446-1.903 0-3.551-.696-4.943-2.089-1.393-1.393-2.09-3.041-2.09-4.944 0-1.766.748-3.431 2.242-4.994l13.76-14.371-12.842-13.352c-1.495-1.562-2.243-3.227-2.243-4.994 0-1.902.697-3.533 2.09-4.892 1.393-1.359 3.006-2.038 4.841-2.038 1.903 0 3.635.815 5.198 2.446l12.231 13.046 12.332-13.046c1.563-1.631 3.296-2.446 5.198-2.446 1.835 0 3.449.679 4.842 2.038 1.392 1.359 2.089 2.99 2.089 4.892 0 1.767-.747 3.432-2.242 4.994l-12.944 13.352 13.759 14.371ZM801.703 70.594c4.281 0 8.103 1.104 11.466 3.312 3.364 2.209 5.98 5.3 7.848 9.275 1.869 3.975 2.803 8.545 2.803 13.709s-.934 9.699-2.803 13.606c-1.868 3.907-4.467 6.914-7.797 9.02-3.329 2.107-7.168 3.16-11.517 3.16-3.397 0-6.472-.697-9.224-2.09-2.752-1.392-4.875-3.346-6.37-5.86v19.263c0 2.039-.679 3.669-2.038 4.892-1.359 1.224-3.16 1.835-5.402 1.835-2.378 0-4.298-.645-5.759-1.936-1.461-1.291-2.191-2.99-2.191-5.097V78.034c0-2.174.697-3.924 2.089-5.249 1.393-1.325 3.245-1.987 5.555-1.987 2.31 0 4.145.662 5.504 1.987 1.359 1.325 2.038 3.075 2.038 5.249v.816c1.495-2.582 3.636-4.604 6.421-6.065 2.786-1.461 5.912-2.191 9.377-2.191Zm-4.484 40.361c3.601 0 6.387-1.206 8.357-3.618 1.971-2.412 2.956-5.895 2.956-10.447 0-4.621-.985-8.205-2.956-10.753-1.97-2.548-4.756-3.822-8.357-3.822-3.602 0-6.387 1.24-8.358 3.72-1.97 2.48-2.956 6.03-2.956 10.651 0 4.552.986 8.069 2.956 10.549 1.971 2.48 4.756 3.72 8.358 3.72ZM840.943 122.472c-2.242 0-4.094-.611-5.555-1.835-1.46-1.223-2.191-3.023-2.191-5.401V56.732c0-2.378.731-4.178 2.191-5.401 1.461-1.223 3.313-1.835 5.555-1.835 2.175 0 3.992.612 5.453 1.835 1.461 1.223 2.191 3.023 2.191 5.401v58.504c0 2.378-.73 4.178-2.191 5.401-1.461 1.224-3.278 1.835-5.453 1.835ZM884.464 122.676c-5.3 0-9.955-1.07-13.964-3.211-4.008-2.14-7.1-5.164-9.274-9.071-2.175-3.907-3.262-8.51-3.262-13.81 0-5.3 1.087-9.903 3.262-13.81 2.174-3.907 5.266-6.914 9.274-9.021 4.009-2.106 8.664-3.159 13.964-3.159 5.3 0 9.954 1.053 13.963 3.159 4.009 2.107 7.101 5.114 9.275 9.021 2.174 3.907 3.261 8.51 3.261 13.81 0 5.3-1.087 9.903-3.261 13.81-2.174 3.907-5.266 6.931-9.275 9.071-4.009 2.141-8.663 3.211-13.963 3.211Zm0-11.721c7.474 0 11.211-4.79 11.211-14.371 0-4.824-.968-8.426-2.905-10.804-1.936-2.378-4.705-3.567-8.306-3.567-7.474 0-11.212 4.79-11.212 14.371s3.738 14.371 11.212 14.371ZM950.203 70.798c2.039-.136 3.653.322 4.842 1.376 1.189 1.053 1.783 2.633 1.783 4.739 0 2.242-.543 3.907-1.63 4.994-1.088 1.087-3.024 1.767-5.81 2.039l-3.058.305c-3.737.408-6.438 1.631-8.102 3.67-1.665 2.038-2.498 4.654-2.498 7.848v19.467c0 2.378-.73 4.178-2.191 5.401-1.461 1.224-3.278 1.835-5.453 1.835-2.242 0-4.094-.611-5.554-1.835-1.461-1.223-2.192-3.023-2.192-5.401V77.83c0-2.242.748-3.975 2.243-5.198 1.494-1.223 3.295-1.834 5.401-1.834 2.039 0 3.738.594 5.096 1.783 1.359 1.189 2.039 2.837 2.039 4.944v2.751c1.223-2.921 3.075-5.164 5.555-6.726a17.21 17.21 0 0 1 8.102-2.65l1.427-.102ZM1000.35 106.98c1.36 0 2.46.544 3.31 1.631.85 1.087 1.28 2.48 1.28 4.178 0 1.156-.34 2.226-1.02 3.211-.68.985-1.64 1.818-2.86 2.497-2.308 1.223-4.992 2.225-8.05 3.007-3.057.781-5.877 1.172-8.459 1.172-5.436 0-10.175-1.053-14.218-3.16-4.043-2.106-7.152-5.113-9.326-9.02-2.174-3.907-3.261-8.51-3.261-13.81 0-5.096 1.053-9.615 3.159-13.556 2.107-3.941 5.028-7.015 8.765-9.224 3.738-2.208 7.984-3.312 12.741-3.312 4.552 0 8.544 1.002 11.975 3.007 3.432 2.004 6.104 4.858 8.004 8.561 1.9 3.703 2.85 8.035 2.85 12.995 0 1.495-.36 2.633-1.07 3.414-.71.782-1.71 1.172-3.01 1.172h-28.534c.476 4.009 1.699 6.914 3.669 8.715 1.971 1.8 4.791 2.701 8.46 2.701 1.97 0 3.737-.238 5.3-.714 1.563-.475 3.295-1.121 5.198-1.936a40.508 40.508 0 0 1 2.752-1.07c.883-.306 1.664-.459 2.345-.459Zm-17.532-25.786c-2.921 0-5.266.934-7.032 2.803-1.767 1.868-2.82 4.569-3.16 8.102h19.671c-.204-3.601-1.104-6.319-2.701-8.153-1.597-1.835-3.856-2.752-6.778-2.752ZM1044.38 70.798c2.04-.136 3.65.322 4.84 1.376 1.19 1.053 1.78 2.633 1.78 4.739 0 2.242-.54 3.907-1.63 4.994-1.08 1.087-3.02 1.767-5.81 2.039l-3.05.305c-3.74.408-6.44 1.631-8.11 3.67-1.66 2.038-2.49 4.654-2.49 7.848v19.467c0 2.378-.73 4.178-2.2 5.401-1.46 1.224-3.27 1.835-5.45 1.835-2.24 0-4.09-.611-5.55-1.835-1.46-1.223-2.19-3.023-2.19-5.401V77.83c0-2.242.74-3.975 2.24-5.198 1.49-1.223 3.29-1.834 5.4-1.834 2.04 0 3.74.594 5.1 1.783 1.36 1.189 2.04 2.837 2.04 4.944v2.751c1.22-2.921 3.07-5.164 5.55-6.726a17.206 17.206 0 0 1 8.1-2.65l1.43-.102ZM308.913 178.722c-.782 0-1.41-.247-1.886-.739-.475-.493-.713-1.13-.713-1.911v-30.985c0-.781.229-1.401.688-1.86.458-.458 1.095-.688 1.911-.688h18.244c1.631 0 2.446.714 2.446 2.141s-.815 2.14-2.446 2.14h-15.645v11.262h14.626c1.63 0 2.446.714 2.446 2.141s-.816 2.14-2.446 2.14h-14.626v13.709c0 .815-.23 1.46-.688 1.936-.459.476-1.096.714-1.911.714ZM344.585 178.823c-2.446 0-4.595-.526-6.446-1.579-1.852-1.054-3.279-2.557-4.281-4.51-1.002-1.954-1.503-4.222-1.503-6.804 0-2.616.501-4.9 1.503-6.854 1.002-1.953 2.429-3.457 4.281-4.51 1.851-1.053 4-1.58 6.446-1.58 2.447 0 4.595.527 6.447 1.58 1.852 1.053 3.278 2.557 4.281 4.51 1.002 1.954 1.503 4.238 1.503 6.854 0 2.582-.501 4.85-1.503 6.804-1.003 1.953-2.429 3.456-4.281 4.51-1.852 1.053-4 1.579-6.447 1.579Zm0-4.076c2.277 0 4.018-.748 5.224-2.243 1.206-1.495 1.809-3.686 1.809-6.574 0-2.853-.611-5.036-1.835-6.548-1.223-1.512-2.955-2.268-5.198-2.268-2.242 0-3.975.756-5.198 2.268-1.223 1.512-1.834 3.695-1.834 6.548 0 2.888.603 5.079 1.809 6.574s2.947 2.243 5.223 2.243ZM375.57 153.088c1.63-.102 2.446.595 2.446 2.09 0 .747-.187 1.308-.561 1.681-.373.374-1.019.595-1.936.663l-1.529.153c-2.14.204-3.729.951-4.765 2.242-1.036 1.291-1.554 2.854-1.554 4.688v11.67c0 .816-.238 1.427-.714 1.835-.475.408-1.087.612-1.834.612-.748 0-1.368-.204-1.86-.612-.493-.408-.739-1.019-.739-1.835v-20.741c0-.781.246-1.384.739-1.809.492-.424 1.112-.637 1.86-.637.679 0 1.248.213 1.707.637.459.425.688 1.011.688 1.758v2.447c.679-1.495 1.665-2.633 2.956-3.415 1.291-.781 2.751-1.24 4.382-1.376l.714-.051ZM407.114 178.874c-2.582 0-5.036-.356-7.363-1.07-2.328-.713-4.188-1.698-5.581-2.955-.645-.544-.968-1.241-.968-2.09 0-.611.17-1.13.51-1.554.339-.425.747-.637 1.223-.637.475 0 1.053.221 1.732.662 3.024 2.243 6.473 3.364 10.346 3.364 2.717 0 4.807-.51 6.268-1.529 1.461-1.019 2.191-2.48 2.191-4.383 0-1.495-.679-2.616-2.038-3.363-1.359-.748-3.534-1.461-6.523-2.141-2.854-.611-5.198-1.308-7.033-2.089-1.835-.781-3.27-1.843-4.306-3.185s-1.554-3.049-1.554-5.122c0-2.072.569-3.915 1.707-5.529 1.138-1.614 2.726-2.871 4.765-3.771 2.038-.9 4.365-1.35 6.981-1.35 2.412 0 4.638.339 6.676 1.019 2.039.679 3.771 1.682 5.198 3.007.68.577 1.019 1.274 1.019 2.089 0 .577-.178 1.087-.535 1.529-.357.441-.773.662-1.248.662-.442 0-1.003-.221-1.682-.662-1.563-1.189-3.032-2.047-4.408-2.574-1.376-.526-3.032-.79-4.969-.79-2.616 0-4.654.535-6.115 1.606-1.461 1.07-2.191 2.556-2.191 4.459 0 1.63.645 2.862 1.936 3.694 1.291.833 3.363 1.589 6.217 2.268 2.99.68 5.411 1.385 7.262 2.115 1.852.73 3.33 1.733 4.434 3.007s1.656 2.913 1.656 4.917c0 2.039-.569 3.848-1.707 5.428-1.138 1.58-2.735 2.803-4.79 3.669-2.056.866-4.426 1.299-7.11 1.299ZM440.035 152.986c5.912 0 8.867 3.347 8.867 10.04v13.249c0 .748-.237 1.342-.713 1.784-.476.442-1.104.663-1.886.663-.781 0-1.401-.221-1.86-.663-.458-.442-.688-1.036-.688-1.784v-13.198c0-2.039-.416-3.534-1.248-4.485-.833-.951-2.132-1.427-3.899-1.427-2.072 0-3.737.646-4.994 1.937-1.257 1.291-1.885 3.023-1.885 5.198v11.975c0 .748-.23 1.342-.688 1.784-.459.442-1.079.663-1.86.663-.782 0-1.41-.221-1.886-.663-.476-.442-.713-1.036-.713-1.784v-31.544c0-.748.246-1.342.738-1.784.493-.442 1.13-.662 1.911-.662.748 0 1.351.212 1.81.637.458.424.688.993.688 1.707v12.74c.849-1.427 1.987-2.514 3.414-3.262 1.427-.747 3.058-1.121 4.892-1.121ZM466.739 178.823c-2.446 0-4.595-.526-6.447-1.579-1.851-1.054-3.278-2.557-4.281-4.51-1.002-1.954-1.503-4.222-1.503-6.804 0-2.616.501-4.9 1.503-6.854 1.003-1.953 2.43-3.457 4.281-4.51 1.852-1.053 4.001-1.58 6.447-1.58 2.446 0 4.595.527 6.446 1.58 1.852 1.053 3.279 2.557 4.281 4.51 1.002 1.954 1.503 4.238 1.503 6.854 0 2.582-.501 4.85-1.503 6.804-1.002 1.953-2.429 3.456-4.281 4.51-1.851 1.053-4 1.579-6.446 1.579Zm0-4.076c2.276 0 4.017-.748 5.223-2.243 1.206-1.495 1.809-3.686 1.809-6.574 0-2.853-.611-5.036-1.834-6.548-1.223-1.512-2.956-2.268-5.198-2.268-2.243 0-3.975.756-5.198 2.268-1.223 1.512-1.835 3.695-1.835 6.548 0 2.888.603 5.079 1.809 6.574s2.947 2.243 5.224 2.243ZM498.029 152.986c2.14 0 4.051.544 5.733 1.631 1.682 1.087 2.99 2.616 3.924 4.587.934 1.97 1.401 4.246 1.401 6.828 0 2.548-.458 4.791-1.376 6.727-.917 1.937-2.217 3.431-3.898 4.485-1.682 1.053-3.61 1.579-5.784 1.579-1.869 0-3.517-.399-4.943-1.197-1.427-.798-2.515-1.945-3.262-3.44v11.364c0 .714-.229 1.283-.688 1.708-.459.424-1.062.637-1.809.637-.781 0-1.418-.221-1.911-.663-.493-.442-.739-1.036-.739-1.784v-29.863c0-.747.238-1.35.713-1.809.476-.458 1.105-.688 1.886-.688.747 0 1.359.23 1.835.688.475.459.713 1.062.713 1.809v2.09c.747-1.495 1.835-2.65 3.262-3.466 1.426-.815 3.074-1.223 4.943-1.223Zm-1.223 21.761c2.242 0 3.975-.756 5.198-2.268 1.223-1.512 1.834-3.661 1.834-6.447 0-2.82-.62-5.011-1.86-6.574-1.24-1.562-2.964-2.344-5.172-2.344-2.243 0-3.967.765-5.173 2.293-1.206 1.529-1.809 3.704-1.809 6.523 0 2.82.603 4.995 1.809 6.523 1.206 1.529 2.93 2.294 5.173 2.294ZM517.394 178.722c-.748 0-1.368-.204-1.86-.612-.493-.408-.739-1.019-.739-1.835v-20.69c0-.815.246-1.435.739-1.86.492-.424 1.112-.637 1.86-.637.747 0 1.359.213 1.834.637.476.425.714 1.045.714 1.86v20.69c0 .816-.238 1.427-.714 1.835-.475.408-1.087.612-1.834.612Zm0-30.628c-.985 0-1.767-.272-2.344-.815-.578-.544-.867-1.257-.867-2.141 0-.883.289-1.588.867-2.115.577-.526 1.359-.789 2.344-.789.951 0 1.724.263 2.319.789.594.527.891 1.232.891 2.115 0 .884-.288 1.597-.866 2.141-.578.543-1.359.815-2.344.815ZM538.848 146.463c-1.698.136-2.955.671-3.771 1.606-.815.934-1.223 2.301-1.223 4.102v1.427h5.045c.714 0 1.266.178 1.657.535.39.357.586.841.586 1.452 0 .612-.196 1.096-.586 1.453-.391.356-.943.535-1.657.535h-5.045v18.651c0 .816-.246 1.436-.739 1.861-.492.424-1.112.637-1.86.637-.747 0-1.359-.213-1.834-.637-.476-.425-.714-1.045-.714-1.861v-18.651h-3.057c-.714 0-1.266-.179-1.657-.535-.39-.357-.586-.841-.586-1.453 0-.611.196-1.095.586-1.452.391-.357.943-.535 1.657-.535h3.057v-.663c0-3.125.799-5.58 2.395-7.364 1.597-1.783 3.856-2.777 6.778-2.981l1.325-.102c1.087-.068 1.877.051 2.37.357.492.306.739.798.739 1.478 0 1.189-.714 1.869-2.141 2.038l-1.325.102ZM563.106 154.617c.204-.51.501-.883.892-1.121.39-.238.806-.357 1.248-.357.646 0 1.215.221 1.707.663.493.441.739.968.739 1.579 0 .34-.068.663-.204.969l-14.167 30.067c-.204.475-.501.841-.892 1.095-.39.255-.806.383-1.248.383a2.528 2.528 0 0 1-1.656-.612c-.493-.408-.739-.917-.739-1.529 0-.272.085-.611.255-1.019l3.516-7.491-9.836-20.894a2.037 2.037 0 0 1-.203-.918c0-.645.271-1.189.815-1.63a2.834 2.834 0 0 1 1.835-.663c1.019 0 1.749.476 2.191 1.427l7.899 17.531 7.848-17.48Z" style="fill:#333;fill-rule:nonzero"/><g><circle cx="121" cy="121.861" r="121" style="fill:#4247a6"/><path d="M162.199 47.893a512.732 512.732 0 0 0-82.23-.013c-17.551 1.32-31.526 15.229-32.93 32.775a510.828 510.828 0 0 0-.013 82.235c1.321 17.552 15.228 31.527 32.773 32.931a510.664 510.664 0 0 0 82.231.013c17.552-1.319 31.526-15.229 32.929-32.775a511.975 511.975 0 0 0 1.666-41.202 512.13 512.13 0 0 0-1.653-41.032c-1.32-17.553-15.228-31.528-32.773-32.932Zm24.617 114.401c-1.097 13.607-11.942 24.387-25.555 25.401a502.728 502.728 0 0 1-80.69-.013c-13.606-1.098-24.384-11.943-25.4-25.555a501.16 501.16 0 0 1 .013-80.694c1.098-13.606 11.942-24.386 25.554-25.402a501.239 501.239 0 0 1 80.691.013c13.606 1.098 24.384 11.943 25.4 25.555a501.173 501.173 0 0 1-.013 80.695Z" style="fill:#fff;fill-rule:nonzero"/><path d="M155.818 72.125H87.544a4.036 4.036 0 0 0-2.84 1.165 3.96 3.96 0 0 0-1.176 2.813v45.076c.01 8.417 6.897 15.237 15.395 15.247h7.363v18.561c0 8.42 6.893 15.246 15.395 15.246 8.503 0 15.395-6.826 15.395-15.246v-18.561h7.363c8.499-.01 15.386-6.83 15.395-15.247V76.103c0-2.197-1.798-3.978-4.016-3.978Zm-64.114 8.176h14.655v7.302a3.991 3.991 0 0 0 3.998 3.927 3.99 3.99 0 0 0 3.996-3.927v-7.302h14.656v7.302a3.99 3.99 0 0 0 3.997 3.925 3.99 3.99 0 0 0 3.997-3.925v-7.302h14.656v25.889H91.704V80.301Zm59.955 41.264c-.004 3.973-3.283 7.194-7.328 7.198h-11.325c-2.207 0-3.997 1.758-3.997 3.926v22.25c-.045 3.944-3.312 7.119-7.328 7.119-4.015 0-7.283-3.175-7.328-7.119v-22.25a3.884 3.884 0 0 0-1.17-2.776 4.032 4.032 0 0 0-2.827-1.15H99.032c-4.046-.004-7.324-3.225-7.328-7.198v-7.199h59.955v7.199Z" style="fill:#fff;fill-rule:nonzero"/></g></g></svg>